# MagicaVoxel @ Ephtracy

# group
o 

# material
mtllib voxel_chest-1.mtl
usemtl palette

# normals
vn -1 0 0
vn 1 0 0
vn 0 0 1
vn 0 0 -1
vn 0 -1 0
vn 0 1 0

# texcoords
vt 0.306641 0.5
vt 0.970703 0.5
vt 0.974609 0.5
vt 0.978516 0.5
vt 0.982422 0.5
vt 0.990234 0.5
vt 0.994141 0.5

# verts
v -1.4 1.2 0.9
v -1.4 1.2 -1
v -1.4 1.3 0.4
v -1.4 1.3 0.3
v -1.4 1.3 0.2
v -1.4 1.3 0.1
v -1.4 1.3 0
v -1.4 1.3 -0.1
v -1.4 1.3 -0.2
v -1.4 1.3 -0.3
v -1.4 1.3 -0.4
v -1.4 1.3 -0.5
v -1.4 2.2 0.2
v -1.4 2.2 0.1
v -1.4 2.2 0
v -1.4 2.2 -0.1
v -1.4 2.2 -0.2
v -1.4 2.2 -0.3
v -1.4 2.3 0.4
v -1.4 2.3 0.3
v -1.4 2.3 -0.4
v -1.4 2.3 -0.5
v -1.4 2.4 1
v -1.4 2.4 0.9
v -1.4 2.4 0.4
v -1.4 2.4 0.3
v -1.4 2.4 -0.4
v -1.4 2.4 -0.5
v -1.4 2.5 1
v -1.4 2.5 0.9
v -1.4 2.5 -1
v -1.3 1.3 1
v -1.3 1.3 0.9
v -1.3 1.3 0.4
v -1.3 1.3 0.3
v -1.3 1.3 0.2
v -1.3 1.3 0.1
v -1.3 1.3 0
v -1.3 1.3 -0.1
v -1.3 1.3 -0.2
v -1.3 1.3 -0.3
v -1.3 1.3 -0.4
v -1.3 1.3 -0.5
v -1.3 2.2 0.2
v -1.3 2.2 0.1
v -1.3 2.2 0
v -1.3 2.2 -0.1
v -1.3 2.2 -0.2
v -1.3 2.2 -0.3
v -1.3 2.3 0.4
v -1.3 2.3 0.3
v -1.3 2.3 -0.4
v -1.3 2.3 -0.5
v -1.3 2.4 1
v -1.3 2.4 0.9
v -1.3 2.4 0.3
v -1.3 2.4 -0.4
v -0.7 1.4 1
v -0.7 1.4 0.9
v -0.7 1.5 1
v -0.7 1.5 0.9
v -0.7 1.6 1
v -0.7 1.6 0.9
v -0.7 1.7 1
v -0.7 1.7 0.9
v -0.7 1.8 1
v -0.7 1.8 0.9
v -0.7 2.2 0.9
v -0.7 2.4 1
v -0.7 2.4 0.9
v 0.6 1.3 1
v 0.6 1.3 0.9
v 0.6 2.3 1
v 0.6 2.3 0.9
v 0.6 2.3 0.7
v 0.6 2.3 0.6
v 0.6 2.4 1
v 0.6 2.4 0.9
v 0.6 2.4 0.8
v 0.6 2.4 0.7
v 0.6 2.4 0.6
v 0.6 2.5 1
v 0.6 2.5 0.9
v 0.6 2.5 0.8
v 0.6 2.5 0.7
v 1.1 1.5 0.6
v 1.1 1.5 -0.7
v 1.1 2.4 0.6
v 1.1 2.4 -0.7
v 1.2 1.4 1
v 1.2 1.4 0.9
v 1.2 1.5 1
v 1.2 1.5 0.9
v 1.2 1.6 1
v 1.2 1.6 0.9
v 1.2 1.7 1
v 1.2 1.7 0.9
v 1.2 1.8 1
v 1.2 1.8 0.9
v 1.2 2.2 0.9
v 1.2 2.4 1
v 1.2 2.4 0.9
v 1.2 2.4 0.7
v 1.2 2.4 -0.8
v 1.2 2.5 0.7
v 1.2 2.5 -0.8
v -1.2 1.4 1
v -1.2 1.4 0.9
v -1.2 1.5 1
v -1.2 1.5 0.9
v -1.2 1.6 1
v -1.2 1.6 0.9
v -1.2 1.7 1
v -1.2 1.7 0.9
v -1.2 1.8 1
v -1.2 1.8 0.9
v -1.2 2.2 0.9
v -1.2 2.4 1
v -1.2 2.4 0.9
v -1.2 2.4 0.7
v -1.2 2.4 -0.8
v -1.2 2.5 0.7
v -1.2 2.5 -0.8
v -1.1 1.5 0.6
v -1.1 1.5 -0.7
v -1.1 2.4 0.6
v -1.1 2.4 -0.7
v -0.7 2.3 0.7
v -0.7 2.3 0.6
v -0.7 2.4 0.7
v -0.7 2.4 0.6
v -0.6 1.3 1
v -0.6 1.3 0.9
v -0.6 2.3 1
v -0.6 2.3 0.9
v -0.6 2.4 1
v -0.6 2.4 0.9
v -0.6 2.4 0.8
v -0.6 2.4 0.7
v -0.6 2.5 1
v -0.6 2.5 0.9
v -0.6 2.5 0.8
v -0.6 2.5 0.7
v 0.7 1.4 1
v 0.7 1.4 0.9
v 0.7 1.5 1
v 0.7 1.5 0.9
v 0.7 1.6 1
v 0.7 1.6 0.9
v 0.7 1.7 1
v 0.7 1.7 0.9
v 0.7 1.8 1
v 0.7 1.8 0.9
v 0.7 2.2 0.9
v 0.7 2.4 1
v 0.7 2.4 0.9
v 1.3 1.3 1
v 1.3 1.3 0.9
v 1.3 1.3 0.4
v 1.3 1.3 0.3
v 1.3 1.3 0.2
v 1.3 1.3 0.1
v 1.3 1.3 0
v 1.3 1.3 -0.1
v 1.3 1.3 -0.2
v 1.3 1.3 -0.3
v 1.3 1.3 -0.4
v 1.3 1.3 -0.5
v 1.3 2.2 0.2
v 1.3 2.2 0.1
v 1.3 2.2 0
v 1.3 2.2 -0.1
v 1.3 2.2 -0.2
v 1.3 2.2 -0.3
v 1.3 2.3 0.4
v 1.3 2.3 0.3
v 1.3 2.3 -0.4
v 1.3 2.3 -0.5
v 1.3 2.4 1
v 1.3 2.4 0.9
v 1.3 2.4 0.3
v 1.3 2.4 -0.4
v 1.4 1.2 0.9
v 1.4 1.2 -1
v 1.4 1.3 0.4
v 1.4 1.3 0.3
v 1.4 1.3 0.2
v 1.4 1.3 0.1
v 1.4 1.3 0
v 1.4 1.3 -0.1
v 1.4 1.3 -0.2
v 1.4 1.3 -0.3
v 1.4 1.3 -0.4
v 1.4 1.3 -0.5
v 1.4 2.2 0.2
v 1.4 2.2 0.1
v 1.4 2.2 0
v 1.4 2.2 -0.1
v 1.4 2.2 -0.2
v 1.4 2.2 -0.3
v 1.4 2.3 0.4
v 1.4 2.3 0.3
v 1.4 2.3 -0.4
v 1.4 2.3 -0.5
v 1.4 2.4 1
v 1.4 2.4 0.9
v 1.4 2.4 0.4
v 1.4 2.4 0.3
v 1.4 2.4 -0.4
v 1.4 2.4 -0.5
v 1.4 2.5 1
v 1.4 2.5 0.9
v 1.4 2.5 -1
v -1.4 2.4 1
v -1.4 2.5 1
v -1.3 1.3 1
v -1.3 2.4 1
v -1.2 1.4 1
v -1.2 1.5 1
v -1.2 1.6 1
v -1.2 1.7 1
v -1.2 1.8 1
v -1.2 2.4 1
v -0.7 1.4 1
v -0.7 1.5 1
v -0.7 1.6 1
v -0.7 1.7 1
v -0.7 1.8 1
v -0.7 2.4 1
v -0.6 1.3 1
v -0.6 2.3 1
v -0.6 2.4 1
v -0.6 2.5 1
v 0.6 1.3 1
v 0.6 2.3 1
v 0.6 2.4 1
v 0.6 2.5 1
v 0.7 1.4 1
v 0.7 1.5 1
v 0.7 1.6 1
v 0.7 1.7 1
v 0.7 1.8 1
v 0.7 2.4 1
v 1.2 1.4 1
v 1.2 1.5 1
v 1.2 1.6 1
v 1.2 1.7 1
v 1.2 1.8 1
v 1.2 2.4 1
v 1.3 1.3 1
v 1.3 2.4 1
v 1.4 2.4 1
v 1.4 2.5 1
v -1.4 1.2 0.9
v -1.4 2.4 0.9
v -1.3 1.3 0.9
v -1.3 2.4 0.9
v -1.2 1.4 0.9
v -1.2 1.5 0.9
v -1.2 1.6 0.9
v -1.2 1.7 0.9
v -1.2 1.8 0.9
v -1.2 2.2 0.9
v -1.2 2.4 0.9
v -1.1 2.2 0.9
v -1.1 2.3 0.9
v -0.8 2.2 0.9
v -0.8 2.3 0.9
v -0.7 1.4 0.9
v -0.7 1.5 0.9
v -0.7 1.6 0.9
v -0.7 1.7 0.9
v -0.7 1.8 0.9
v -0.7 2.2 0.9
v -0.7 2.4 0.9
v -0.6 1.3 0.9
v -0.6 2.3 0.9
v 0.6 1.3 0.9
v 0.6 2.3 0.9
v 0.7 1.4 0.9
v 0.7 1.5 0.9
v 0.7 1.6 0.9
v 0.7 1.7 0.9
v 0.7 1.8 0.9
v 0.7 2.2 0.9
v 0.7 2.4 0.9
v 0.8 2.2 0.9
v 0.8 2.3 0.9
v 1.1 2.2 0.9
v 1.1 2.3 0.9
v 1.2 1.4 0.9
v 1.2 1.5 0.9
v 1.2 1.6 0.9
v 1.2 1.7 0.9
v 1.2 1.8 0.9
v 1.2 2.2 0.9
v 1.2 2.4 0.9
v 1.3 1.3 0.9
v 1.3 2.4 0.9
v 1.4 1.2 0.9
v 1.4 2.4 0.9
v -1.4 1.3 0.3
v -1.4 2.3 0.3
v -1.3 1.3 0.3
v -1.3 2.3 0.3
v 1.3 1.3 0.3
v 1.3 2.3 0.3
v 1.4 1.3 0.3
v 1.4 2.3 0.3
v -1.4 1.3 0.1
v -1.4 2.2 0.1
v -1.3 1.3 0.1
v -1.3 2.2 0.1
v 1.3 1.3 0.1
v 1.3 2.2 0.1
v 1.4 1.3 0.1
v 1.4 2.2 0.1
v -1.4 1.3 -0.1
v -1.4 2.2 -0.1
v -1.3 1.3 -0.1
v -1.3 2.2 -0.1
v 1.3 1.3 -0.1
v 1.3 2.2 -0.1
v 1.4 1.3 -0.1
v 1.4 2.2 -0.1
v -1.4 1.3 -0.3
v -1.4 2.2 -0.3
v -1.3 1.3 -0.3
v -1.3 2.2 -0.3
v 1.3 1.3 -0.3
v 1.3 2.2 -0.3
v 1.4 1.3 -0.3
v 1.4 2.2 -0.3
v -1.4 2.3 -0.4
v -1.4 2.4 -0.4
v -1.3 2.3 -0.4
v -1.3 2.4 -0.4
v 1.3 2.3 -0.4
v 1.3 2.4 -0.4
v 1.4 2.3 -0.4
v 1.4 2.4 -0.4
v -1.4 1.3 -0.5
v -1.4 2.3 -0.5
v -1.3 1.3 -0.5
v -1.3 2.3 -0.5
v 1.3 1.3 -0.5
v 1.3 2.3 -0.5
v 1.4 1.3 -0.5
v 1.4 2.3 -0.5
v -1.1 1.5 -0.7
v -1.1 2.4 -0.7
v 1.1 1.5 -0.7
v 1.1 2.4 -0.7
v -1.2 2.4 -0.8
v -1.2 2.5 -0.8
v 1.2 2.4 -0.8
v 1.2 2.5 -0.8
v -1.2 2.4 0.7
v -1.2 2.5 0.7
v -0.7 2.3 0.7
v -0.7 2.4 0.7
v -0.6 2.4 0.7
v -0.6 2.5 0.7
v 0.6 2.3 0.7
v 0.6 2.4 0.7
v 0.6 2.5 0.7
v 1.2 2.4 0.7
v 1.2 2.5 0.7
v -1.1 1.5 0.6
v -1.1 2.4 0.6
v -0.7 2.3 0.6
v -0.7 2.4 0.6
v 0.6 2.3 0.6
v 0.6 2.4 0.6
v 1.1 1.5 0.6
v 1.1 2.4 0.6
v -1.4 1.3 0.4
v -1.4 2.3 0.4
v -1.3 1.3 0.4
v -1.3 2.3 0.4
v 1.3 1.3 0.4
v 1.3 2.3 0.4
v 1.4 1.3 0.4
v 1.4 2.3 0.4
v -1.4 2.3 0.3
v -1.4 2.4 0.3
v -1.3 2.3 0.3
v -1.3 2.4 0.3
v 1.3 2.3 0.3
v 1.3 2.4 0.3
v 1.4 2.3 0.3
v 1.4 2.4 0.3
v -1.4 1.3 0.2
v -1.4 2.2 0.2
v -1.3 1.3 0.2
v -1.3 2.2 0.2
v 1.3 1.3 0.2
v 1.3 2.2 0.2
v 1.4 1.3 0.2
v 1.4 2.2 0.2
v -1.4 1.3 0
v -1.4 2.2 0
v -1.3 1.3 0
v -1.3 2.2 0
v 1.3 1.3 0
v 1.3 2.2 0
v 1.4 1.3 0
v 1.4 2.2 0
v -1.4 1.3 -0.2
v -1.4 2.2 -0.2
v -1.3 1.3 -0.2
v -1.3 2.2 -0.2
v 1.3 1.3 -0.2
v 1.3 2.2 -0.2
v 1.4 1.3 -0.2
v 1.4 2.2 -0.2
v -1.4 1.3 -0.4
v -1.4 2.3 -0.4
v -1.3 1.3 -0.4
v -1.3 2.3 -0.4
v 1.3 1.3 -0.4
v 1.3 2.3 -0.4
v 1.4 1.3 -0.4
v 1.4 2.3 -0.4
v -1.4 1.2 -1
v -1.4 2.5 -1
v 1.4 1.2 -1
v 1.4 2.5 -1
v -1.4 1.2 0.9
v 1.4 1.2 0.9
v -1.4 1.2 -1
v 1.4 1.2 -1
v -1.3 1.3 1
v -0.6 1.3 1
v 0.6 1.3 1
v 1.3 1.3 1
v -1.3 1.3 0.9
v -0.6 1.3 0.9
v 0.6 1.3 0.9
v 1.3 1.3 0.9
v -1.2 1.5 1
v -0.7 1.5 1
v 0.7 1.5 1
v 1.2 1.5 1
v -1.2 1.5 0.9
v -0.7 1.5 0.9
v 0.7 1.5 0.9
v 1.2 1.5 0.9
v -1.2 1.7 1
v -0.7 1.7 1
v 0.7 1.7 1
v 1.2 1.7 1
v -1.2 1.7 0.9
v -0.7 1.7 0.9
v 0.7 1.7 0.9
v 1.2 1.7 0.9
v -1.4 2.2 0.2
v -1.3 2.2 0.2
v 1.3 2.2 0.2
v 1.4 2.2 0.2
v -1.4 2.2 0.1
v -1.3 2.2 0.1
v 1.3 2.2 0.1
v 1.4 2.2 0.1
v -1.4 2.2 0
v -1.3 2.2 0
v 1.3 2.2 0
v 1.4 2.2 0
v -1.4 2.2 -0.1
v -1.3 2.2 -0.1
v 1.3 2.2 -0.1
v 1.4 2.2 -0.1
v -1.4 2.2 -0.2
v -1.3 2.2 -0.2
v 1.3 2.2 -0.2
v 1.4 2.2 -0.2
v -1.4 2.2 -0.3
v -1.3 2.2 -0.3
v 1.3 2.2 -0.3
v 1.4 2.2 -0.3
v -0.6 2.3 1
v 0.6 2.3 1
v -0.6 2.3 0.9
v 0.6 2.3 0.9
v -1.4 2.3 0.4
v -1.3 2.3 0.4
v 1.3 2.3 0.4
v 1.4 2.3 0.4
v -1.4 2.3 0.3
v -1.3 2.3 0.3
v 1.3 2.3 0.3
v 1.4 2.3 0.3
v -1.4 2.3 -0.4
v -1.3 2.3 -0.4
v 1.3 2.3 -0.4
v 1.4 2.3 -0.4
v -1.4 2.3 -0.5
v -1.3 2.3 -0.5
v 1.3 2.3 -0.5
v 1.4 2.3 -0.5
v -1.4 2.4 1
v -1.3 2.4 1
v -1.2 2.4 1
v -0.7 2.4 1
v 0.7 2.4 1
v 1.2 2.4 1
v 1.3 2.4 1
v 1.4 2.4 1
v -1.4 2.4 0.9
v -1.3 2.4 0.9
v -1.2 2.4 0.9
v -0.7 2.4 0.9
v 0.7 2.4 0.9
v 1.2 2.4 0.9
v 1.3 2.4 0.9
v 1.4 2.4 0.9
v -1.4 2.4 0.3
v -1.3 2.4 0.3
v 1.3 2.4 0.3
v 1.4 2.4 0.3
v -1.4 2.4 -0.4
v -1.3 2.4 -0.4
v 1.3 2.4 -0.4
v 1.4 2.4 -0.4
v -1.4 1.3 0.4
v -1.3 1.3 0.4
v 1.3 1.3 0.4
v 1.4 1.3 0.4
v -1.4 1.3 0.3
v -1.3 1.3 0.3
v 1.3 1.3 0.3
v 1.4 1.3 0.3
v -1.4 1.3 0.2
v -1.3 1.3 0.2
v 1.3 1.3 0.2
v 1.4 1.3 0.2
v -1.4 1.3 0.1
v -1.3 1.3 0.1
v 1.3 1.3 0.1
v 1.4 1.3 0.1
v -1.4 1.3 0
v -1.3 1.3 0
v 1.3 1.3 0
v 1.4 1.3 0
v -1.4 1.3 -0.1
v -1.3 1.3 -0.1
v 1.3 1.3 -0.1
v 1.4 1.3 -0.1
v -1.4 1.3 -0.2
v -1.3 1.3 -0.2
v 1.3 1.3 -0.2
v 1.4 1.3 -0.2
v -1.4 1.3 -0.3
v -1.3 1.3 -0.3
v 1.3 1.3 -0.3
v 1.4 1.3 -0.3
v -1.4 1.3 -0.4
v -1.3 1.3 -0.4
v 1.3 1.3 -0.4
v 1.4 1.3 -0.4
v -1.4 1.3 -0.5
v -1.3 1.3 -0.5
v 1.3 1.3 -0.5
v 1.4 1.3 -0.5
v -1.2 1.4 1
v -0.7 1.4 1
v 0.7 1.4 1
v 1.2 1.4 1
v -1.2 1.4 0.9
v -0.7 1.4 0.9
v 0.7 1.4 0.9
v 1.2 1.4 0.9
v -1.1 1.5 0.6
v 1.1 1.5 0.6
v -1.1 1.5 -0.7
v 1.1 1.5 -0.7
v -1.2 1.6 1
v -0.7 1.6 1
v 0.7 1.6 1
v 1.2 1.6 1
v -1.2 1.6 0.9
v -0.7 1.6 0.9
v 0.7 1.6 0.9
v 1.2 1.6 0.9
v -1.2 1.8 1
v -0.7 1.8 1
v 0.7 1.8 1
v 1.2 1.8 1
v -1.2 1.8 0.9
v -0.7 1.8 0.9
v 0.7 1.8 0.9
v 1.2 1.8 0.9
v -0.7 2.3 0.7
v 0.6 2.3 0.7
v -0.7 2.3 0.6
v 0.6 2.3 0.6
v -1.4 2.3 0.3
v -1.3 2.3 0.3
v 1.3 2.3 0.3
v 1.4 2.3 0.3
v -1.4 2.3 -0.4
v -1.3 2.3 -0.4
v 1.3 2.3 -0.4
v 1.4 2.3 -0.4
v -0.6 2.4 1
v 0.6 2.4 1
v -0.6 2.4 0.9
v 0.6 2.4 0.9
v -0.6 2.4 0.8
v 0.6 2.4 0.8
v -1.2 2.4 0.7
v -0.7 2.4 0.7
v -0.6 2.4 0.7
v 0.6 2.4 0.7
v 1.2 2.4 0.7
v -1.1 2.4 0.6
v -0.7 2.4 0.6
v 0.6 2.4 0.6
v 1.1 2.4 0.6
v -1.1 2.4 -0.7
v 1.1 2.4 -0.7
v -1.2 2.4 -0.8
v 1.2 2.4 -0.8
v -1.4 2.5 1
v -0.6 2.5 1
v 0.6 2.5 1
v 1.4 2.5 1
v -1.4 2.5 0.9
v -0.6 2.5 0.9
v 0.6 2.5 0.9
v 1.4 2.5 0.9
v -1.3 2.5 0.8
v -0.6 2.5 0.8
v 0.6 2.5 0.8
v 1.3 2.5 0.8
v -1.2 2.5 0.7
v -0.6 2.5 0.7
v 0.6 2.5 0.7
v 1.2 2.5 0.7
v -1.2 2.5 -0.8
v 1.2 2.5 -0.8
v -1.3 2.5 -0.9
v 1.3 2.5 -0.9
v -1.4 2.5 -1
v 1.4 2.5 -1

# faces
f 3/2/1 2/2/1 1/2/1
f 4/2/1 2/2/1 3/2/1
f 5/2/1 2/2/1 4/2/1
f 6/2/1 2/2/1 5/2/1
f 7/2/1 2/2/1 6/2/1
f 8/2/1 2/2/1 7/2/1
f 9/2/1 2/2/1 8/2/1
f 10/2/1 2/2/1 9/2/1
f 11/2/1 2/2/1 10/2/1
f 12/2/1 2/2/1 11/2/1
f 13/4/1 5/4/1 4/4/1
f 14/4/1 7/4/1 6/4/1
f 15/4/1 7/4/1 14/4/1
f 16/4/1 9/4/1 8/4/1
f 17/4/1 9/4/1 16/4/1
f 18/4/1 11/4/1 10/4/1
f 19/2/1 3/2/1 1/2/1
f 20/4/1 18/4/1 17/4/1
f 20/4/1 17/4/1 16/4/1
f 20/4/1 15/4/1 14/4/1
f 20/4/1 13/4/1 4/4/1
f 20/4/1 16/4/1 15/4/1
f 20/4/1 14/4/1 13/4/1
f 21/4/1 11/4/1 18/4/1
f 21/4/1 18/4/1 20/4/1
f 22/2/1 2/2/1 12/2/1
f 24/2/1 19/2/1 1/2/1
f 25/4/1 20/4/1 19/4/1
f 25/2/1 19/2/1 24/2/1
f 26/4/1 20/4/1 25/4/1
f 27/4/1 22/4/1 21/4/1
f 28/2/1 2/2/1 22/2/1
f 28/4/1 22/4/1 27/4/1
f 29/7/1 24/7/1 23/7/1
f 30/2/1 27/2/1 26/2/1
f 30/7/1 24/7/1 29/7/1
f 30/2/1 26/2/1 25/2/1
f 30/2/1 28/2/1 27/2/1
f 30/2/1 25/2/1 24/2/1
f 31/2/1 2/2/1 28/2/1
f 31/2/1 28/2/1 30/2/1
f 44/5/1 37/5/1 36/5/1
f 45/5/1 37/5/1 44/5/1
f 46/5/1 39/5/1 38/5/1
f 47/5/1 39/5/1 46/5/1
f 48/5/1 41/5/1 40/5/1
f 49/5/1 41/5/1 48/5/1
f 50/5/1 35/5/1 34/5/1
f 51/5/1 35/5/1 50/5/1
f 52/5/1 43/5/1 42/5/1
f 53/5/1 43/5/1 52/5/1
f 54/7/1 33/7/1 32/7/1
f 55/7/1 33/7/1 54/7/1
f 56/5/1 52/5/1 51/5/1
f 57/5/1 52/5/1 56/5/1
f 60/7/1 59/7/1 58/7/1
f 61/7/1 59/7/1 60/7/1
f 64/7/1 63/7/1 62/7/1
f 65/7/1 63/7/1 64/7/1
f 68/7/1 67/7/1 66/7/1
f 69/7/1 68/7/1 66/7/1
f 70/7/1 68/7/1 69/7/1
f 73/7/1 72/7/1 71/7/1
f 74/7/1 72/7/1 73/7/1
f 80/6/1 76/6/1 75/6/1
f 81/6/1 76/6/1 80/6/1
f 82/7/1 78/7/1 77/7/1
f 83/2/1 79/2/1 78/2/1
f 83/7/1 78/7/1 82/7/1
f 84/6/1 80/6/1 79/6/1
f 84/2/1 79/2/1 83/2/1
f 85/6/1 80/6/1 84/6/1
f 88/6/1 87/6/1 86/6/1
f 89/6/1 87/6/1 88/6/1
f 92/7/1 91/7/1 90/7/1
f 93/7/1 91/7/1 92/7/1
f 96/7/1 95/7/1 94/7/1
f 97/7/1 95/7/1 96/7/1
f 100/7/1 99/7/1 98/7/1
f 101/7/1 100/7/1 98/7/1
f 102/7/1 100/7/1 101/7/1
f 105/6/1 104/6/1 103/6/1
f 106/6/1 104/6/1 105/6/1
f 107/7/2 108/7/2 109/7/2
f 109/7/2 108/7/2 110/7/2
f 111/7/2 112/7/2 113/7/2
f 113/7/2 112/7/2 114/7/2
f 115/7/2 116/7/2 117/7/2
f 115/7/2 117/7/2 118/7/2
f 118/7/2 117/7/2 119/7/2
f 120/6/2 121/6/2 122/6/2
f 122/6/2 121/6/2 123/6/2
f 124/6/2 125/6/2 126/6/2
f 126/6/2 125/6/2 127/6/2
f 128/6/2 129/6/2 130/6/2
f 130/6/2 129/6/2 131/6/2
f 132/7/2 133/7/2 134/7/2
f 134/7/2 133/7/2 135/7/2
f 136/7/2 137/7/2 140/7/2
f 137/2/2 138/2/2 141/2/2
f 140/7/2 137/7/2 141/7/2
f 138/6/2 139/6/2 142/6/2
f 141/2/2 138/2/2 142/2/2
f 142/6/2 139/6/2 143/6/2
f 144/7/2 145/7/2 146/7/2
f 146/7/2 145/7/2 147/7/2
f 148/7/2 149/7/2 150/7/2
f 150/7/2 149/7/2 151/7/2
f 152/7/2 153/7/2 154/7/2
f 152/7/2 154/7/2 155/7/2
f 155/7/2 154/7/2 156/7/2
f 161/5/2 162/5/2 169/5/2
f 169/5/2 162/5/2 170/5/2
f 163/5/2 164/5/2 171/5/2
f 171/5/2 164/5/2 172/5/2
f 165/5/2 166/5/2 173/5/2
f 173/5/2 166/5/2 174/5/2
f 159/5/2 160/5/2 175/5/2
f 175/5/2 160/5/2 176/5/2
f 167/5/2 168/5/2 177/5/2
f 177/5/2 168/5/2 178/5/2
f 157/7/2 158/7/2 179/7/2
f 179/7/2 158/7/2 180/7/2
f 176/5/2 177/5/2 181/5/2
f 181/5/2 177/5/2 182/5/2
f 183/2/2 184/2/2 185/2/2
f 185/2/2 184/2/2 186/2/2
f 186/2/2 184/2/2 187/2/2
f 187/2/2 184/2/2 188/2/2
f 188/2/2 184/2/2 189/2/2
f 189/2/2 184/2/2 190/2/2
f 190/2/2 184/2/2 191/2/2
f 191/2/2 184/2/2 192/2/2
f 192/2/2 184/2/2 193/2/2
f 193/2/2 184/2/2 194/2/2
f 186/4/2 187/4/2 195/4/2
f 188/4/2 189/4/2 196/4/2
f 196/4/2 189/4/2 197/4/2
f 190/4/2 191/4/2 198/4/2
f 198/4/2 191/4/2 199/4/2
f 192/4/2 193/4/2 200/4/2
f 183/2/2 185/2/2 201/2/2
f 199/4/2 200/4/2 202/4/2
f 198/4/2 199/4/2 202/4/2
f 196/4/2 197/4/2 202/4/2
f 186/4/2 195/4/2 202/4/2
f 197/4/2 198/4/2 202/4/2
f 195/4/2 196/4/2 202/4/2
f 200/4/2 193/4/2 203/4/2
f 202/4/2 200/4/2 203/4/2
f 194/2/2 184/2/2 204/2/2
f 183/2/2 201/2/2 206/2/2
f 201/4/2 202/4/2 207/4/2
f 206/2/2 201/2/2 207/2/2
f 207/4/2 202/4/2 208/4/2
f 203/4/2 204/4/2 209/4/2
f 204/2/2 184/2/2 210/2/2
f 209/4/2 204/4/2 210/4/2
f 205/7/2 206/7/2 211/7/2
f 208/2/2 209/2/2 212/2/2
f 211/7/2 206/7/2 212/7/2
f 207/2/2 208/2/2 212/2/2
f 209/2/2 210/2/2 212/2/2
f 206/2/2 207/2/2 212/2/2
f 210/2/2 184/2/2 213/2/2
f 212/2/2 210/2/2 213/2/2
f 217/7/3 215/7/3 214/7/3
f 218/7/3 217/7/3 216/7/3
f 219/7/3 217/7/3 218/7/3
f 220/7/3 217/7/3 219/7/3
f 221/7/3 217/7/3 220/7/3
f 222/7/3 217/7/3 221/7/3
f 223/7/3 215/7/3 217/7/3
f 223/7/3 217/7/3 222/7/3
f 224/7/3 218/7/3 216/7/3
f 225/3/3 220/3/3 219/3/3
f 226/3/3 220/3/3 225/3/3
f 227/3/3 222/3/3 221/3/3
f 228/3/3 222/3/3 227/3/3
f 229/7/3 215/7/3 223/7/3
f 230/7/3 226/7/3 225/7/3
f 230/7/3 229/7/3 228/7/3
f 230/7/3 228/7/3 227/7/3
f 230/7/3 224/7/3 216/7/3
f 230/7/3 227/7/3 226/7/3
f 230/7/3 225/7/3 224/7/3
f 231/7/3 229/7/3 230/7/3
f 232/7/3 215/7/3 229/7/3
f 232/7/3 229/7/3 231/7/3
f 233/7/3 215/7/3 232/7/3
f 235/7/3 232/7/3 231/7/3
f 236/7/3 232/7/3 235/7/3
f 238/7/3 235/7/3 234/7/3
f 238/7/3 237/7/3 236/7/3
f 238/7/3 236/7/3 235/7/3
f 239/7/3 237/7/3 238/7/3
f 240/7/3 237/7/3 239/7/3
f 241/7/3 237/7/3 240/7/3
f 242/7/3 237/7/3 241/7/3
f 243/7/3 237/7/3 242/7/3
f 244/7/3 238/7/3 234/7/3
f 245/3/3 240/3/3 239/3/3
f 246/3/3 240/3/3 245/3/3
f 247/3/3 242/3/3 241/3/3
f 248/3/3 242/3/3 247/3/3
f 249/7/3 237/7/3 243/7/3
f 250/7/3 248/7/3 247/7/3
f 250/7/3 249/7/3 248/7/3
f 250/7/3 246/7/3 245/7/3
f 250/7/3 244/7/3 234/7/3
f 250/7/3 247/7/3 246/7/3
f 250/7/3 245/7/3 244/7/3
f 251/7/3 237/7/3 249/7/3
f 251/7/3 249/7/3 250/7/3
f 252/7/3 237/7/3 251/7/3
f 253/7/3 237/7/3 252/7/3
f 256/2/3 255/2/3 254/2/3
f 257/2/3 255/2/3 256/2/3
f 265/4/3 263/4/3 262/4/3
f 265/5/3 264/5/3 263/5/3
f 266/5/3 264/5/3 265/5/3
f 267/4/3 265/4/3 262/4/3
f 267/4/3 266/4/3 265/4/3
f 268/5/3 264/5/3 266/5/3
f 268/4/3 266/4/3 267/4/3
f 269/4/3 259/4/3 258/4/3
f 270/4/3 259/4/3 269/4/3
f 271/4/3 261/4/3 260/4/3
f 272/4/3 261/4/3 271/4/3
f 273/4/3 267/4/3 262/4/3
f 274/5/3 268/5/3 267/5/3
f 274/4/3 267/4/3 273/4/3
f 275/5/3 264/5/3 268/5/3
f 275/5/3 268/5/3 274/5/3
f 276/2/3 256/2/3 254/2/3
f 278/2/3 276/2/3 254/2/3
f 278/2/3 277/2/3 276/2/3
f 279/2/3 277/2/3 278/2/3
f 287/4/3 285/4/3 284/4/3
f 287/5/3 286/5/3 285/5/3
f 288/5/3 286/5/3 287/5/3
f 289/4/3 287/4/3 284/4/3
f 289/4/3 288/4/3 287/4/3
f 290/5/3 286/5/3 288/5/3
f 290/4/3 288/4/3 289/4/3
f 291/4/3 281/4/3 280/4/3
f 292/4/3 281/4/3 291/4/3
f 293/4/3 283/4/3 282/4/3
f 294/4/3 283/4/3 293/4/3
f 295/4/3 289/4/3 284/4/3
f 296/5/3 290/5/3 289/5/3
f 296/4/3 289/4/3 295/4/3
f 297/5/3 286/5/3 290/5/3
f 297/5/3 290/5/3 296/5/3
f 298/2/3 278/2/3 254/2/3
f 300/2/3 298/2/3 254/2/3
f 300/2/3 299/2/3 298/2/3
f 301/2/3 299/2/3 300/2/3
f 304/4/3 303/4/3 302/4/3
f 305/4/3 303/4/3 304/4/3
f 308/4/3 307/4/3 306/4/3
f 309/4/3 307/4/3 308/4/3
f 312/4/3 311/4/3 310/4/3
f 313/4/3 311/4/3 312/4/3
f 316/4/3 315/4/3 314/4/3
f 317/4/3 315/4/3 316/4/3
f 320/4/3 319/4/3 318/4/3
f 321/4/3 319/4/3 320/4/3
f 324/4/3 323/4/3 322/4/3
f 325/4/3 323/4/3 324/4/3
f 328/4/3 327/4/3 326/4/3
f 329/4/3 327/4/3 328/4/3
f 332/4/3 331/4/3 330/4/3
f 333/4/3 331/4/3 332/4/3
f 336/4/3 335/4/3 334/4/3
f 337/4/3 335/4/3 336/4/3
f 340/4/3 339/4/3 338/4/3
f 341/4/3 339/4/3 340/4/3
f 344/2/3 343/2/3 342/2/3
f 345/2/3 343/2/3 344/2/3
f 348/2/3 347/2/3 346/2/3
f 349/2/3 347/2/3 348/2/3
f 352/6/3 351/6/3 350/6/3
f 353/6/3 351/6/3 352/6/3
f 356/6/3 355/6/3 354/6/3
f 357/6/3 355/6/3 356/6/3
f 358/6/4 359/6/4 361/6/4
f 361/6/4 359/6/4 362/6/4
f 360/6/4 361/6/4 362/6/4
f 362/6/4 359/6/4 363/6/4
f 360/6/4 362/6/4 364/6/4
f 364/6/4 362/6/4 365/6/4
f 365/6/4 366/6/4 367/6/4
f 367/6/4 366/6/4 368/6/4
f 369/6/4 370/6/4 371/6/4
f 371/6/4 370/6/4 372/6/4
f 369/6/4 371/6/4 373/6/4
f 369/6/4 373/6/4 375/6/4
f 373/6/4 374/6/4 375/6/4
f 375/6/4 374/6/4 376/6/4
f 377/2/4 378/2/4 379/2/4
f 379/2/4 378/2/4 380/2/4
f 381/2/4 382/2/4 383/2/4
f 383/2/4 382/2/4 384/2/4
f 385/4/4 386/4/4 387/4/4
f 387/4/4 386/4/4 388/4/4
f 389/4/4 390/4/4 391/4/4
f 391/4/4 390/4/4 392/4/4
f 393/4/4 394/4/4 395/4/4
f 395/4/4 394/4/4 396/4/4
f 397/4/4 398/4/4 399/4/4
f 399/4/4 398/4/4 400/4/4
f 401/4/4 402/4/4 403/4/4
f 403/4/4 402/4/4 404/4/4
f 405/4/4 406/4/4 407/4/4
f 407/4/4 406/4/4 408/4/4
f 409/4/4 410/4/4 411/4/4
f 411/4/4 410/4/4 412/4/4
f 413/4/4 414/4/4 415/4/4
f 415/4/4 414/4/4 416/4/4
f 417/4/4 418/4/4 419/4/4
f 419/4/4 418/4/4 420/4/4
f 421/4/4 422/4/4 423/4/4
f 423/4/4 422/4/4 424/4/4
f 425/2/4 426/2/4 427/2/4
f 427/2/4 426/2/4 428/2/4
f 431/2/5 430/2/5 429/2/5
f 432/2/5 430/2/5 431/2/5
f 437/7/5 434/7/5 433/7/5
f 438/7/5 434/7/5 437/7/5
f 439/7/5 436/7/5 435/7/5
f 440/7/5 436/7/5 439/7/5
f 445/3/5 442/3/5 441/3/5
f 446/3/5 442/3/5 445/3/5
f 447/3/5 444/3/5 443/3/5
f 448/3/5 444/3/5 447/3/5
f 453/3/5 450/3/5 449/3/5
f 454/3/5 450/3/5 453/3/5
f 455/3/5 452/3/5 451/3/5
f 456/3/5 452/3/5 455/3/5
f 461/4/5 458/4/5 457/4/5
f 462/4/5 458/4/5 461/4/5
f 463/4/5 460/4/5 459/4/5
f 464/4/5 460/4/5 463/4/5
f 469/4/5 466/4/5 465/4/5
f 470/4/5 466/4/5 469/4/5
f 471/4/5 468/4/5 467/4/5
f 472/4/5 468/4/5 471/4/5
f 477/4/5 474/4/5 473/4/5
f 478/4/5 474/4/5 477/4/5
f 479/4/5 476/4/5 475/4/5
f 480/4/5 476/4/5 479/4/5
f 483/7/5 482/7/5 481/7/5
f 484/7/5 482/7/5 483/7/5
f 489/4/5 486/4/5 485/4/5
f 490/4/5 486/4/5 489/4/5
f 491/4/5 488/4/5 487/4/5
f 492/4/5 488/4/5 491/4/5
f 497/4/5 494/4/5 493/4/5
f 498/4/5 494/4/5 497/4/5
f 499/4/5 496/4/5 495/4/5
f 500/4/5 496/4/5 499/4/5
f 509/7/5 502/7/5 501/7/5
f 510/7/5 502/7/5 509/7/5
f 511/7/5 504/7/5 503/7/5
f 512/7/5 504/7/5 511/7/5
f 513/7/5 506/7/5 505/7/5
f 514/7/5 506/7/5 513/7/5
f 515/7/5 508/7/5 507/7/5
f 516/7/5 508/7/5 515/7/5
f 521/2/5 518/2/5 517/2/5
f 522/2/5 518/2/5 521/2/5
f 523/2/5 520/2/5 519/2/5
f 524/2/5 520/2/5 523/2/5
f 525/2/6 526/2/6 529/2/6
f 529/2/6 526/2/6 530/2/6
f 527/2/6 528/2/6 531/2/6
f 531/2/6 528/2/6 532/2/6
f 533/2/6 534/2/6 537/2/6
f 537/2/6 534/2/6 538/2/6
f 535/2/6 536/2/6 539/2/6
f 539/2/6 536/2/6 540/2/6
f 541/2/6 542/2/6 545/2/6
f 545/2/6 542/2/6 546/2/6
f 543/2/6 544/2/6 547/2/6
f 547/2/6 544/2/6 548/2/6
f 549/2/6 550/2/6 553/2/6
f 553/2/6 550/2/6 554/2/6
f 551/2/6 552/2/6 555/2/6
f 555/2/6 552/2/6 556/2/6
f 557/2/6 558/2/6 561/2/6
f 561/2/6 558/2/6 562/2/6
f 559/2/6 560/2/6 563/2/6
f 563/2/6 560/2/6 564/2/6
f 565/7/6 566/7/6 569/7/6
f 569/7/6 566/7/6 570/7/6
f 567/7/6 568/7/6 571/7/6
f 571/7/6 568/7/6 572/7/6
f 573/6/6 574/6/6 575/6/6
f 575/6/6 574/6/6 576/6/6
f 577/3/6 578/3/6 581/3/6
f 581/3/6 578/3/6 582/3/6
f 579/3/6 580/3/6 583/3/6
f 583/3/6 580/3/6 584/3/6
f 585/3/6 586/3/6 589/3/6
f 589/3/6 586/3/6 590/3/6
f 587/3/6 588/3/6 591/3/6
f 591/3/6 588/3/6 592/3/6
f 593/6/6 594/6/6 595/6/6
f 595/6/6 594/6/6 596/6/6
f 597/4/6 598/4/6 601/4/6
f 601/4/6 598/4/6 602/4/6
f 599/4/6 600/4/6 603/4/6
f 603/4/6 600/4/6 604/4/6
f 605/7/6 606/7/6 607/7/6
f 607/7/6 606/7/6 608/7/6
f 607/2/6 608/2/6 609/2/6
f 609/2/6 608/2/6 610/2/6
f 609/6/6 610/6/6 613/6/6
f 613/6/6 610/6/6 614/6/6
f 611/6/6 612/6/6 616/6/6
f 616/6/6 612/6/6 617/6/6
f 614/6/6 615/6/6 618/6/6
f 618/6/6 615/6/6 619/6/6
f 611/6/6 616/6/6 620/6/6
f 619/6/6 615/6/6 621/6/6
f 611/6/6 620/6/6 622/6/6
f 620/6/6 621/6/6 622/6/6
f 621/6/6 615/6/6 623/6/6
f 622/6/6 621/6/6 623/6/6
f 624/7/6 625/7/6 628/7/6
f 628/7/6 625/7/6 629/7/6
f 626/7/6 627/7/6 630/7/6
f 630/7/6 627/7/6 631/7/6
f 628/2/6 629/2/6 632/2/6
f 632/2/6 629/2/6 633/2/6
f 630/2/6 631/2/6 634/2/6
f 634/2/6 631/2/6 635/2/6
f 632/6/6 633/6/6 636/6/6
f 636/6/6 633/6/6 637/6/6
f 634/6/6 635/6/6 638/6/6
f 638/6/6 635/6/6 639/6/6
f 632/6/6 636/6/6 640/6/6
f 639/6/6 635/6/6 641/6/6
f 628/2/6 632/2/6 642/2/6
f 640/6/6 641/6/6 642/6/6
f 632/6/6 640/6/6 642/6/6
f 635/2/6 631/2/6 643/2/6
f 642/6/6 641/6/6 643/6/6
f 641/6/6 635/6/6 643/6/6
f 628/2/6 642/2/6 644/2/6
f 642/2/6 643/2/6 644/2/6
f 643/2/6 631/2/6 645/2/6
f 644/2/6 643/2/6 645/2/6
